<svg width="1024" height="1024" viewBox="0 0 1024 1024" fill="none" xmlns="http://www.w3.org/2000/svg">
<rect width="1024" height="1024" fill="#2C2C2C"/>
<path d="M705.744 307.351L729.014 267.099C736.891 253.513 732.193 236.097 718.607 228.22C704.949 220.343 687.605 225.04 679.729 238.626L651.256 287.911C648.148 293.331 647.498 299.257 648.076 305.038H375.924C376.502 299.257 375.924 293.331 372.744 287.911L344.344 238.554C336.467 224.968 319.051 220.271 305.465 228.148C291.879 236.025 287.182 253.441 295.059 267.027L318.328 307.278C266.441 317.902 227.49 363.79 227.49 418.784V646.493C227.49 709.364 278.437 760.312 341.309 760.312H682.836C745.707 760.312 796.654 709.364 796.654 646.493V418.857C796.582 363.862 757.631 317.974 705.744 307.351ZM739.709 646.493C739.709 677.857 714.199 703.439 682.764 703.439H341.236C309.873 703.439 284.291 677.929 284.291 646.493V418.857C284.291 387.493 309.801 361.911 341.236 361.911H682.764C714.127 361.911 739.709 387.421 739.709 418.857V646.493ZM170.473 447.257C154.719 447.257 142 460.048 142 475.73V589.548C142 605.302 154.719 618.021 170.473 618.021C186.227 618.021 198.945 605.302 198.945 589.548V475.73C198.945 460.048 186.154 447.257 170.473 447.257ZM853.527 447.257C837.773 447.257 825.055 459.976 825.055 475.73V589.548C825.055 605.302 837.773 618.021 853.527 618.021C869.281 618.021 882 605.302 882 589.548V475.73C882 460.048 869.281 447.257 853.527 447.257Z" fill="white"/>
<path d="M375.635 521.77C375.635 527.379 376.739 532.933 378.886 538.114C381.032 543.296 384.178 548.004 388.144 551.97C392.11 555.936 396.818 559.082 402 561.228C407.181 563.375 412.735 564.479 418.344 564.479C423.952 564.479 429.506 563.375 434.688 561.228C439.869 559.082 444.578 555.936 448.544 551.97C452.509 548.004 455.655 543.296 457.802 538.114C459.948 532.933 461.053 527.379 461.053 521.77C461.053 516.162 459.948 510.608 457.802 505.426C455.655 500.245 452.509 495.536 448.544 491.571C444.578 487.605 439.869 484.459 434.688 482.312C429.506 480.166 423.952 479.061 418.344 479.061C412.735 479.061 407.181 480.166 402 482.312C396.818 484.459 392.11 487.605 388.144 491.571C384.178 495.536 381.032 500.245 378.886 505.426C376.739 510.608 375.635 516.162 375.635 521.77Z" fill="white"/>
<path d="M562.947 524.3C562.947 535.627 567.447 546.49 575.456 554.499C583.466 562.509 594.329 567.009 605.656 567.009C616.983 567.009 627.847 562.509 635.856 554.499C643.866 546.49 648.365 535.627 648.365 524.3C648.365 512.973 643.866 502.109 635.856 494.1C627.847 486.09 616.983 481.591 605.656 481.591C594.329 481.591 583.466 486.09 575.456 494.1C567.447 502.109 562.947 512.973 562.947 524.3Z" fill="white"/>
</svg>
