<?xml version="1.0" standalone="no"?><!DOCTYPE svg PUBLIC "-//W3C//DTD SVG 1.1//EN" "http://www.w3.org/Graphics/SVG/1.1/DTD/svg11.dtd"><svg t="1656085792227" class="icon" viewBox="0 0 1024 1024" version="1.1" xmlns="http://www.w3.org/2000/svg" p-id="1349" xmlns:xlink="http://www.w3.org/1999/xlink" width="400" height="400"><defs><style type="text/css"></style></defs><path d="M287 419.069c0-33.137 26.863-60 60-60h330c33.137 0 60 26.863 60 60v220c0 33.137-26.863 60-60 60H347c-33.137 0-60-26.863-60-60v-220z m207.426 183c0 16.569 13.432 30 30 30h120c16.569 0 30-13.431 30-30 0-16.569-13.431-30-30-30h-120c-16.568 0-30 13.431-30 30zM359.213 435.282c-11.716 11.716-11.716 30.711 0 42.427l51.953 51.952-49.527 49.527c-11.715 11.716-11.715 30.711 0 42.426 11.716 11.716 30.711 11.716 42.427 0l70.711-70.71c11.715-11.716 11.715-30.711 0-42.427a30.73 30.73 0 0 0-0.997-0.952 30.198 30.198 0 0 0-1.43-1.532l-70.711-70.711c-11.715-11.715-30.71-11.715-42.426 0z" p-id="1350"></path><path d="M1024 512C1024 170.667 853.333 0 512 0 170.667 0 0 170.667 0 512c0 341.333 170.667 512 512 512 341.333 0 512-170.667 512-512zM299.947 257.636c-9.739-13.405-6.768-32.166 6.636-41.904 13.405-9.739 32.166-6.768 41.905 6.637L389.633 279a29.887 29.887 0 0 1 5.631 20.069h233.64a29.88 29.88 0 0 1 5.63-20.069l41.145-56.631c9.739-13.405 28.5-16.376 41.904-6.637 13.405 9.738 16.376 28.499 6.637 41.904l-30.103 41.433H697c55.228 0 100 44.772 100 100v260c0 55.228-44.772 100-100 100H327c-55.228 0-100-44.772-100-100v-260c0-55.228 44.772-100 100-100h3.05l-30.103-41.433zM823 468.069c0-16.569 13.431-30 30-30 16.569 0 30 13.431 30 30v120c0 16.569-13.431 30-30 30-16.569 0-30-13.431-30-30v-120z m-652-30c16.569 0 30 13.431 30 30v120c0 16.569-13.431 30-30 30-16.569 0-30-13.431-30-30v-120c0-16.569 13.431-30 30-30z" p-id="1351"></path></svg>