<svg width="128" height="128" viewBox="0 0 128 128" fill="none" xmlns="http://www.w3.org/2000/svg">
<path fill-rule="evenodd" clip-rule="evenodd" d="M64 0C106.667 0 128 21.3333 128 64C128 106.667 106.667 128 64 128C21.3333 128 0 106.667 0 64C0 21.3333 21.3333 0 64 0ZM41.2891 101.133H42.7656L41.7656 104.523C41.6875 104.799 41.6302 105.005 41.5938 105.141C41.5625 105.271 41.5469 105.385 41.5469 105.484C41.5469 105.641 41.599 105.789 41.7031 105.93C41.8073 106.065 41.974 106.133 42.2031 106.133C42.651 106.133 43.099 105.841 43.5469 105.258C44 104.669 44.2266 103.891 44.2266 102.922C44.2266 101.49 43.612 100.461 42.3828 99.8359C41.612 99.4401 40.7448 99.2422 39.7812 99.2422C38.0104 99.2422 36.5885 99.7839 35.5156 100.867C34.5469 101.846 34.0625 103.021 34.0625 104.391C34.0625 105.911 34.6302 107.117 35.7656 108.008C36.7708 108.794 37.9974 109.188 39.4453 109.188C40.4349 109.188 41.3594 109.005 42.2188 108.641C42.6875 108.448 43.1719 108.174 43.6719 107.82L43.8594 107.688L44.4297 108.562C43.6901 109.135 42.888 109.573 42.0234 109.875C41.1641 110.172 40.2708 110.32 39.3438 110.32C37.1823 110.32 35.5078 109.648 34.3203 108.305C33.3359 107.19 32.8438 105.87 32.8438 104.344C32.8438 102.635 33.4583 101.188 34.6875 100C35.9792 98.7448 37.6328 98.1172 39.6484 98.1172C41.2891 98.1172 42.6484 98.5469 43.7266 99.4062C44.862 100.312 45.4297 101.516 45.4297 103.016C45.4297 104.198 45.0703 105.214 44.3516 106.062C43.6328 106.906 42.8125 107.328 41.8906 107.328C41.4115 107.328 41.0417 107.193 40.7812 106.922C40.526 106.651 40.3984 106.372 40.3984 106.086V105.969C40.4036 105.922 40.4089 105.872 40.4141 105.82C40.2161 106.195 39.9948 106.495 39.75 106.719C39.3073 107.12 38.776 107.32 38.1562 107.32C37.526 107.32 37 107.094 36.5781 106.641C36.1615 106.188 35.9531 105.555 35.9531 104.742C35.9531 103.799 36.2734 102.917 36.9141 102.094C37.5547 101.271 38.3411 100.859 39.2734 100.859C39.8203 100.859 40.2448 101.01 40.5469 101.312C40.776 101.547 40.9297 101.815 41.0078 102.117L41.2891 101.133ZM37.9219 105.82C38.0938 106.055 38.3385 106.172 38.6562 106.172C39.2135 106.172 39.6693 105.75 40.0234 104.906C40.3828 104.057 40.5625 103.391 40.5625 102.906C40.5625 102.63 40.4792 102.398 40.3125 102.211C40.1458 102.023 39.9219 101.93 39.6406 101.93C39.099 101.93 38.6328 102.268 38.2422 102.945C37.8516 103.617 37.6562 104.268 37.6562 104.898C37.6562 105.279 37.7448 105.586 37.9219 105.82ZM51.3984 107.766L53.1562 101.484H55.5234L52.6016 109.859C52.0391 111.474 51.5938 112.474 51.2656 112.859C50.9375 113.25 50.2812 113.445 49.2969 113.445C49.099 113.445 48.9401 113.443 48.8203 113.438C48.7005 113.438 48.5208 113.43 48.2812 113.414V111.633L48.5625 111.648C48.7812 111.659 48.9896 111.651 49.1875 111.625C49.3854 111.599 49.5521 111.539 49.6875 111.445C49.8177 111.357 49.9375 111.172 50.0469 110.891C50.1615 110.609 50.2083 110.438 50.1875 110.375L47.0625 101.484H49.5391L51.3984 107.766ZM61.125 103.539C60.2292 103.539 59.6276 103.831 59.3203 104.414C59.1484 104.742 59.0625 105.247 59.0625 105.93V110H56.8203V101.484H58.9453V102.969C59.2891 102.401 59.5885 102.013 59.8438 101.805C60.2604 101.456 60.8021 101.281 61.4688 101.281C61.4842 101.281 61.4985 101.282 61.5118 101.282C61.5344 101.284 61.5539 101.286 61.5703 101.289C61.6016 101.289 61.6667 101.292 61.7656 101.297V103.578C61.625 103.562 61.5 103.552 61.3906 103.547C61.2812 103.542 61.1927 103.539 61.125 103.539ZM70.1797 102.562C70.8984 103.464 71.2578 104.529 71.2578 105.758C71.2578 107.008 70.8984 108.078 70.1797 108.969C69.4609 109.854 68.3698 110.297 66.9062 110.297C65.4427 110.297 64.3516 109.854 63.6328 108.969C62.9141 108.078 62.5547 107.008 62.5547 105.758C62.5547 104.529 62.9141 103.464 63.6328 102.562C64.3516 101.661 65.4427 101.211 66.9062 101.211C68.3698 101.211 69.4609 101.661 70.1797 102.562ZM66.8984 103.094C66.2474 103.094 65.7448 103.326 65.3906 103.789C65.0417 104.247 64.8672 104.904 64.8672 105.758C64.8672 106.612 65.0417 107.271 65.3906 107.734C65.7448 108.198 66.2474 108.43 66.8984 108.43C67.5495 108.43 68.0495 108.198 68.3984 107.734C68.7474 107.271 68.9219 106.612 68.9219 105.758C68.9219 104.904 68.7474 104.247 68.3984 103.789C68.0495 103.326 67.5495 103.094 66.8984 103.094ZM77.4844 110.227C76.7812 110.227 76.2161 110.086 75.7891 109.805C75.5339 109.638 75.2578 109.346 74.9609 108.93V110H72.7812V98.5H75V102.594C75.2812 102.198 75.5911 101.896 75.9297 101.688C76.3307 101.427 76.8411 101.297 77.4609 101.297C78.5807 101.297 79.4557 101.701 80.0859 102.508C80.7214 103.315 81.0391 104.357 81.0391 105.633C81.0391 106.956 80.7266 108.052 80.1016 108.922C79.4766 109.792 78.6042 110.227 77.4844 110.227ZM78.7031 105.867C78.7031 105.263 78.625 104.763 78.4688 104.367C78.1719 103.617 77.625 103.242 76.8281 103.242C76.0208 103.242 75.4661 103.609 75.1641 104.344C75.0078 104.734 74.9297 105.24 74.9297 105.859C74.9297 106.589 75.0911 107.193 75.4141 107.672C75.737 108.151 76.2292 108.391 76.8906 108.391C77.4635 108.391 77.9089 108.159 78.2266 107.695C78.5443 107.232 78.7031 106.622 78.7031 105.867ZM89.7422 102.562C90.4609 103.464 90.8203 104.529 90.8203 105.758C90.8203 107.008 90.4609 108.078 89.7422 108.969C89.0234 109.854 87.9323 110.297 86.4688 110.297C85.0052 110.297 83.9141 109.854 83.1953 108.969C82.4766 108.078 82.1172 107.008 82.1172 105.758C82.1172 104.529 82.4766 103.464 83.1953 102.562C83.9141 101.661 85.0052 101.211 86.4688 101.211C87.9323 101.211 89.0234 101.661 89.7422 102.562ZM86.4609 103.094C85.8099 103.094 85.3073 103.326 84.9531 103.789C84.6042 104.247 84.4297 104.904 84.4297 105.758C84.4297 106.612 84.6042 107.271 84.9531 107.734C85.3073 108.198 85.8099 108.43 86.4609 108.43C87.112 108.43 87.612 108.198 87.9609 107.734C88.3099 107.271 88.4844 106.612 88.4844 105.758C88.4844 104.904 88.3099 104.247 87.9609 103.789C87.612 103.326 87.112 103.094 86.4609 103.094ZM96.3203 108.414V110.078L95.2656 110.117C94.2135 110.154 93.4948 109.971 93.1094 109.57C92.8594 109.315 92.7344 108.922 92.7344 108.391V103.148H91.5469V101.562H92.7344V99.1875H94.9375V101.562H96.3203V103.148H94.9375V107.648C94.9375 107.997 94.9818 108.216 95.0703 108.305C95.1589 108.388 95.4297 108.43 95.8828 108.43H96.0938C96.1719 108.424 96.2474 108.419 96.3203 108.414ZM14 51C14 44.3726 19.3726 39 26 39H102C108.627 39 114 44.3726 114 51V77C114 83.6274 108.627 89 102 89H26C19.3726 89 14 83.6274 14 77V51ZM19.9834 61.457C20.6455 60.6133 21.7822 60.1914 23.3936 60.1914C24.4424 60.1914 25.374 60.3994 26.1885 60.8154C27.0029 61.2314 27.4102 62.0166 27.4102 63.1709V67.5654C27.4102 67.8701 27.416 68.2393 27.4277 68.6729C27.4453 69.001 27.4951 69.2236 27.5771 69.3408C27.6592 69.458 27.7822 69.5547 27.9463 69.6309V70H25.2217C25.1455 69.8066 25.0928 69.625 25.0635 69.4551C25.0342 69.2852 25.0107 69.0918 24.9932 68.875C24.6475 69.25 24.249 69.5693 23.7979 69.833C23.2588 70.1436 22.6494 70.2988 21.9697 70.2988C21.1025 70.2988 20.3848 70.0527 19.8164 69.5605C19.2539 69.0625 18.9727 68.3594 18.9727 67.4512C18.9727 66.2734 19.4268 65.4209 20.335 64.8936C20.833 64.6064 21.5654 64.4014 22.5322 64.2783L23.3848 64.1729C23.8477 64.1143 24.1787 64.041 24.3779 63.9531C24.7354 63.8008 24.9141 63.5635 24.9141 63.2412C24.9141 62.8486 24.7764 62.5791 24.501 62.4326C24.2314 62.2803 23.833 62.2041 23.3057 62.2041C22.7139 62.2041 22.2949 62.3506 22.0488 62.6436C21.873 62.8604 21.7559 63.1533 21.6973 63.5225H19.2803C19.333 62.6846 19.5674 61.9961 19.9834 61.457ZM21.8467 68.1895C22.0811 68.3828 22.3682 68.4795 22.708 68.4795C23.2471 68.4795 23.7422 68.3213 24.1934 68.0049C24.6504 67.6885 24.8877 67.1113 24.9053 66.2734V65.3418C24.7471 65.4414 24.5859 65.5234 24.4219 65.5879C24.2637 65.6465 24.0439 65.7021 23.7627 65.7549L23.2002 65.8604C22.6729 65.9541 22.2949 66.0684 22.0664 66.2031C21.6797 66.4316 21.4863 66.7861 21.4863 67.2666C21.4863 67.6943 21.6064 68.002 21.8467 68.1895ZM35.7861 68.6465C35.7627 68.6758 35.7041 68.7637 35.6104 68.9102C35.5166 69.0566 35.4053 69.1855 35.2764 69.2969C34.8838 69.6484 34.5029 69.8887 34.1338 70.0176C33.7705 70.1465 33.3428 70.2109 32.8506 70.2109C31.4326 70.2109 30.4775 69.7012 29.9854 68.6816C29.71 68.1191 29.5723 67.29 29.5723 66.1943V60.4199H32.1387V66.1943C32.1387 66.7393 32.2031 67.1494 32.332 67.4248C32.5605 67.9111 33.0088 68.1543 33.6768 68.1543C34.5322 68.1543 35.1182 67.8086 35.4346 67.1172C35.5986 66.7422 35.6807 66.2471 35.6807 65.6318V60.4199H38.2207V70H35.7861V68.6465ZM45.0322 68.2158V70.0879L43.8457 70.1318C42.6621 70.1729 41.8535 69.9678 41.4199 69.5166C41.1387 69.2295 40.998 68.7871 40.998 68.1895V62.292H39.6621V60.5078H40.998V57.8359H43.4766V60.5078H45.0322V62.292H43.4766V67.3545C43.4766 67.7471 43.5264 67.9932 43.626 68.0928C43.7256 68.1865 44.0303 68.2334 44.54 68.2334H44.7773C44.8652 68.2275 44.9502 68.2217 45.0322 68.2158ZM54.6299 61.6328C55.4385 62.6465 55.8428 63.8447 55.8428 65.2275C55.8428 66.6338 55.4385 67.8379 54.6299 68.8398C53.8213 69.8359 52.5938 70.334 50.9473 70.334C49.3008 70.334 48.0732 69.8359 47.2646 68.8398C46.4561 67.8379 46.0518 66.6338 46.0518 65.2275C46.0518 63.8447 46.4561 62.6465 47.2646 61.6328C48.0732 60.6191 49.3008 60.1123 50.9473 60.1123C52.5938 60.1123 53.8213 60.6191 54.6299 61.6328ZM50.9385 62.2305C50.2061 62.2305 49.6406 62.4912 49.2422 63.0127C48.8496 63.5283 48.6533 64.2666 48.6533 65.2275C48.6533 66.1885 48.8496 66.9297 49.2422 67.4512C49.6406 67.9727 50.2061 68.2334 50.9385 68.2334C51.6709 68.2334 52.2334 67.9727 52.626 67.4512C53.0186 66.9297 53.2148 66.1885 53.2148 65.2275C53.2148 64.2666 53.0186 63.5283 52.626 63.0127C52.2334 62.4912 51.6709 62.2305 50.9385 62.2305ZM56.8887 63.7949H61.9336V66.168H56.8887V63.7949ZM70.2393 60.8594C70.9893 61.3398 71.4199 62.166 71.5312 63.3379H69.0264C68.9912 63.0156 68.9004 62.7607 68.7539 62.5732C68.4785 62.2334 68.0098 62.0635 67.3477 62.0635C66.8027 62.0635 66.4131 62.1484 66.1787 62.3184C65.9502 62.4883 65.8359 62.6875 65.8359 62.916C65.8359 63.2031 65.959 63.4111 66.2051 63.54C66.4512 63.6748 67.3213 63.9062 68.8154 64.2344C69.8115 64.4688 70.5586 64.8232 71.0566 65.2979C71.5488 65.7783 71.7949 66.3789 71.7949 67.0996C71.7949 68.0488 71.4404 68.8252 70.7314 69.4287C70.0283 70.0264 68.9385 70.3252 67.4619 70.3252C65.9561 70.3252 64.8428 70.0088 64.1221 69.376C63.4072 68.7373 63.0498 67.9258 63.0498 66.9414H65.5898C65.6426 67.3867 65.7568 67.7031 65.9326 67.8906C66.2432 68.2246 66.8174 68.3916 67.6553 68.3916C68.1475 68.3916 68.5371 68.3184 68.8242 68.1719C69.1172 68.0254 69.2637 67.8057 69.2637 67.5127C69.2637 67.2314 69.1465 67.0176 68.9121 66.8711C68.6777 66.7246 67.8076 66.4727 66.3018 66.1152C65.2178 65.8457 64.4531 65.5088 64.0078 65.1045C63.5625 64.7061 63.3398 64.1318 63.3398 63.3818C63.3398 62.4971 63.6855 61.7383 64.377 61.1055C65.0742 60.4668 66.0527 60.1475 67.3125 60.1475C68.5078 60.1475 69.4834 60.3848 70.2393 60.8594ZM81.9463 63.8564H79.3799C79.333 63.499 79.2129 63.1768 79.0195 62.8896C78.7383 62.5029 78.3018 62.3096 77.71 62.3096C76.8662 62.3096 76.2891 62.7285 75.9785 63.5664C75.8145 64.0117 75.7324 64.6035 75.7324 65.3418C75.7324 66.0449 75.8145 66.6104 75.9785 67.0381C76.2773 67.835 76.8398 68.2334 77.666 68.2334C78.252 68.2334 78.668 68.0752 78.9141 67.7588C79.1602 67.4424 79.3096 67.0322 79.3623 66.5283H81.9199C81.8613 67.29 81.5859 68.0107 81.0938 68.6904C80.3086 69.7861 79.1455 70.334 77.6045 70.334C76.0635 70.334 74.9297 69.877 74.2031 68.9629C73.4766 68.0488 73.1133 66.8623 73.1133 65.4033C73.1133 63.7568 73.5146 62.4766 74.3174 61.5625C75.1201 60.6484 76.2275 60.1914 77.6396 60.1914C78.8408 60.1914 79.8223 60.4609 80.584 61C81.3516 61.5391 81.8057 62.4912 81.9463 63.8564ZM88.4941 62.7314C87.4863 62.7314 86.8096 63.0596 86.4639 63.7158C86.2705 64.085 86.1738 64.6533 86.1738 65.4209V70H83.6514V60.4199H86.042V62.0898C86.4287 61.4512 86.7656 61.0146 87.0527 60.7803C87.5215 60.3877 88.1309 60.1914 88.8809 60.1914C88.9277 60.1914 88.9658 60.1943 88.9951 60.2002C89.0303 60.2002 89.1035 60.2031 89.2148 60.209V62.7754C89.0566 62.7578 88.916 62.7461 88.793 62.7402C88.6699 62.7344 88.5703 62.7314 88.4941 62.7314ZM98.6807 61.6328C99.4893 62.6465 99.8936 63.8447 99.8936 65.2275C99.8936 66.6338 99.4893 67.8379 98.6807 68.8398C97.8721 69.8359 96.6445 70.334 94.998 70.334C93.3516 70.334 92.124 69.8359 91.3154 68.8398C90.5068 67.8379 90.1025 66.6338 90.1025 65.2275C90.1025 63.8447 90.5068 62.6465 91.3154 61.6328C92.124 60.6191 93.3516 60.1123 94.998 60.1123C96.6445 60.1123 97.8721 60.6191 98.6807 61.6328ZM94.9893 62.2305C94.2568 62.2305 93.6914 62.4912 93.293 63.0127C92.9004 63.5283 92.7041 64.2666 92.7041 65.2275C92.7041 66.1885 92.9004 66.9297 93.293 67.4512C93.6914 67.9727 94.2568 68.2334 94.9893 68.2334C95.7217 68.2334 96.2842 67.9727 96.6768 67.4512C97.0693 66.9297 97.2656 66.1885 97.2656 65.2275C97.2656 64.2666 97.0693 63.5283 96.6768 63.0127C96.2842 62.4912 95.7217 62.2305 94.9893 62.2305ZM101.748 57.0449H104.253V70H101.748V57.0449ZM106.758 57.0449H109.263V70H106.758V57.0449Z" fill="black"/>
</svg>
