<svg width="128" height="128" viewBox="0 0 128 128" fill="none" xmlns="http://www.w3.org/2000/svg"><path fill-rule="evenodd" clip-rule="evenodd" d="M64 0c42.667 0 64 21.333 64 64s-21.333 64-64 64S0 106.667 0 64 21.333 0 64 0zM41.29 101.133h1.476l-1 3.39c-.078.276-.136.482-.172.618-.032.13-.047.244-.047.343 0 .157.052.305.156.446.104.135.271.203.5.203.448 0 .896-.292 1.344-.875.453-.589.68-1.367.68-2.336 0-1.432-.615-2.461-1.844-3.086-.771-.396-1.638-.594-2.602-.594-1.77 0-3.192.542-4.265 1.625-.97.979-1.453 2.154-1.453 3.524 0 1.52.567 2.726 1.703 3.617 1.005.786 2.231 1.18 3.68 1.18a7.038 7.038 0 0 0 4.226-1.368l.187-.132.57.874a8.467 8.467 0 0 1-2.406 1.313 8.145 8.145 0 0 1-2.68.445c-2.16 0-3.835-.672-5.023-2.015-.984-1.115-1.476-2.435-1.476-3.961 0-1.709.614-3.156 1.843-4.344 1.292-1.255 2.946-1.883 4.961-1.883 1.641 0 3 .43 4.079 1.29 1.135.905 1.703 2.109 1.703 3.609 0 1.182-.36 2.198-1.078 3.046-.72.844-1.54 1.266-2.461 1.266-.48 0-.85-.135-1.11-.406-.255-.271-.383-.55-.383-.836v-.117l.016-.149a3.28 3.28 0 0 1-.664.899 2.291 2.291 0 0 1-1.594.601c-.63 0-1.156-.226-1.578-.679-.417-.453-.625-1.086-.625-1.899 0-.943.32-1.825.961-2.648.64-.823 1.427-1.235 2.36-1.235.546 0 .97.151 1.273.453.229.235.383.503.46.805l.282-.984zm-3.368 4.687c.172.235.417.352.734.352.558 0 1.013-.422 1.367-1.266.36-.849.54-1.515.54-2 0-.276-.084-.508-.25-.695-.167-.188-.391-.281-.672-.281-.542 0-1.008.338-1.399 1.015-.39.672-.586 1.323-.586 1.953 0 .381.089.688.266.922zm13.476 1.946l1.758-6.282h2.367l-2.921 8.375c-.563 1.615-1.008 2.615-1.336 3-.328.391-.985.586-1.97.586-.197 0-.356-.002-.476-.007-.12 0-.3-.008-.539-.024v-1.781l.282.015c.218.011.427.003.624-.023.198-.026.365-.086.5-.18.13-.088.25-.273.36-.554.114-.282.161-.453.14-.516l-3.124-8.891h2.476l1.86 6.282zm9.727-4.227c-.896 0-1.497.292-1.805.875-.172.328-.258.833-.258 1.516V110H56.82v-8.516h2.125v1.485c.344-.568.644-.956.899-1.164.416-.349.958-.524 1.625-.524l.043.001a.665.665 0 0 1 .058.007c.032 0 .097.003.196.008v2.281a5.602 5.602 0 0 0-.641-.039zm9.055-.977c.718.902 1.078 1.967 1.078 3.196 0 1.25-.36 2.32-1.078 3.211-.72.885-1.81 1.328-3.274 1.328-1.463 0-2.554-.443-3.273-1.328-.719-.891-1.078-1.961-1.078-3.211 0-1.229.36-2.294 1.078-3.196.719-.901 1.81-1.351 3.273-1.351 1.464 0 2.555.45 3.274 1.351zm-3.282.532c-.65 0-1.153.232-1.507.695-.35.458-.524 1.115-.524 1.969 0 .854.175 1.513.524 1.976.354.464.856.696 1.507.696.651 0 1.151-.232 1.5-.696.35-.463.524-1.122.524-1.976 0-.854-.175-1.511-.524-1.969-.349-.463-.849-.695-1.5-.695zm10.586 7.133c-.703 0-1.268-.141-1.695-.422-.255-.167-.531-.459-.828-.875V110h-2.18V98.5H75v4.094c.281-.396.591-.698.93-.906.4-.261.911-.391 1.53-.391 1.12 0 1.996.404 2.626 1.211.635.807.953 1.849.953 3.125 0 1.323-.312 2.419-.937 3.289-.625.87-1.498 1.305-2.618 1.305zm1.22-4.36c0-.604-.079-1.104-.235-1.5-.297-.75-.844-1.125-1.64-1.125-.808 0-1.363.367-1.665 1.102-.156.39-.234.896-.234 1.515 0 .73.161 1.334.484 1.813.323.479.815.719 1.477.719.572 0 1.018-.232 1.336-.696.317-.463.476-1.073.476-1.828zm11.038-3.305c.719.902 1.078 1.967 1.078 3.196 0 1.25-.36 2.32-1.078 3.211-.719.885-1.81 1.328-3.273 1.328-1.464 0-2.555-.443-3.274-1.328-.718-.891-1.078-1.961-1.078-3.211 0-1.229.36-2.294 1.078-3.196.72-.901 1.81-1.351 3.274-1.351 1.463 0 2.554.45 3.273 1.351zm-3.281.532c-.651 0-1.154.232-1.508.695-.349.458-.523 1.115-.523 1.969 0 .854.174 1.513.523 1.976.354.464.857.696 1.508.696s1.151-.232 1.5-.696c.349-.463.523-1.122.523-1.976 0-.854-.174-1.511-.523-1.969-.349-.463-.849-.695-1.5-.695zm9.86 5.32v1.664l-1.055.039c-1.053.037-1.771-.146-2.157-.547-.25-.255-.375-.648-.375-1.179v-5.243h-1.187v-1.586h1.187v-2.374h2.204v2.374h1.382v1.586h-1.382v4.5c0 .349.044.568.132.657.089.083.36.125.813.125h.21l.227-.016zM14 51c0-6.627 5.373-12 12-12h76c6.627 0 12 5.373 12 12v26c0 6.627-5.373 12-12 12H26c-6.627 0-12-5.373-12-12V51zm14.697 8.844c.834.534 1.312 1.452 1.436 2.754H27.35c-.04-.358-.14-.642-.303-.85-.306-.378-.827-.566-1.563-.566-.605 0-1.038.094-1.299.283-.253.189-.38.41-.38.664 0 .319.136.55.41.693.273.15 1.24.407 2.9.772 1.107.26 1.937.654 2.49 1.181.547.534.82 1.202.82 2.002 0 1.055-.393 1.918-1.18 2.588-.782.664-1.993.996-3.634.996-1.673 0-2.91-.351-3.71-1.054-.795-.71-1.192-1.612-1.192-2.705h2.822c.059.494.186.846.381 1.054.345.371.983.557 1.914.557.547 0 .98-.081 1.299-.244.326-.163.488-.407.488-.733a.79.79 0 0 0-.39-.713c-.26-.162-1.228-.442-2.9-.84-1.205-.299-2.055-.673-2.55-1.123-.494-.442-.742-1.08-.742-1.913 0-.984.384-1.827 1.153-2.53.774-.71 1.862-1.064 3.261-1.064 1.328 0 2.412.263 3.252.79zM40.572 70l-1.67-7.754L37.212 70h-2.89l-2.988-10.645h2.988l1.66 7.637 1.534-7.637h2.822l1.621 7.667 1.66-7.667h2.9L43.434 70h-2.862zm6.65-6.895h5.606v2.637h-5.605v-2.637zm16.417-2.607c.859.918 1.289 2.266 1.289 4.043 0 1.875-.423 3.304-1.27 4.287-.84.983-1.924 1.475-3.252 1.475-.846 0-1.55-.212-2.11-.635-.305-.234-.605-.576-.898-1.025v5.546h-2.754V59.356h2.666v1.572c.3-.462.619-.827.958-1.094.618-.475 1.354-.713 2.207-.713 1.243 0 2.298.46 3.164 1.377zm-1.582 4.18c0-.82-.19-1.546-.567-2.178-.37-.632-.976-.947-1.816-.947-1.01 0-1.703.478-2.08 1.435-.196.508-.293 1.153-.293 1.934 0 1.237.329 2.106.986 2.607.39.293.853.44 1.387.44.775 0 1.364-.3 1.767-.899.41-.599.616-1.396.616-2.392zM72.3 61.924c-1.12 0-1.872.364-2.256 1.094-.215.41-.322 1.041-.322 1.894V70H66.92V59.355h2.656v1.856c.43-.71.804-1.195 1.123-1.455.521-.436 1.198-.654 2.032-.654a.67.67 0 0 1 .126.01c.04 0 .12.003.245.01v2.85a7.495 7.495 0 0 0-.801-.048zm11.318-1.22c.899 1.125 1.348 2.457 1.348 3.993 0 1.563-.45 2.9-1.348 4.014-.898 1.107-2.262 1.66-4.092 1.66-1.83 0-3.193-.553-4.091-1.66-.899-1.113-1.348-2.451-1.348-4.014 0-1.536.45-2.868 1.348-3.994.898-1.126 2.262-1.69 4.091-1.69 1.83 0 3.194.564 4.092 1.69zm-4.101.663c-.814 0-1.442.29-1.885.87-.436.572-.654 1.393-.654 2.46 0 1.068.218 1.891.654 2.471.443.58 1.07.87 1.885.87.813 0 1.438-.29 1.875-.87.436-.58.654-1.403.654-2.47 0-1.068-.218-1.889-.654-2.462-.437-.58-1.062-.869-1.875-.869zM96.45 70h-3.467l-1.836-3.193L89.303 70h-3.38l3.634-5.39-3.477-5.235h3.408l1.778 3.086 1.738-3.086h3.31l-3.496 5.186L96.451 70zm5.977-2.793l2.197-7.851h2.959l-3.652 10.468c-.703 2.019-1.26 3.269-1.67 3.75-.41.489-1.231.733-2.461.733-.248 0-.446-.004-.596-.01-.15 0-.374-.01-.674-.03v-2.226l.352.02c.273.013.534.003.781-.03a1.4 1.4 0 0 0 .625-.224c.163-.111.313-.342.449-.694.144-.351.202-.566.176-.644l-3.906-11.113h3.096l2.324 7.851z" fill="#000"/></svg>